<svg width="21" height="28" viewBox="0 0 21 28" fill="none" xmlns="http://www.w3.org/2000/svg">
<path d="M9.94766 14.0055C9.67422 13.1305 9.67969 11.4406 9.83828 11.4406C10.2977 11.4406 10.2539 13.4586 9.94766 14.0055ZM9.85469 16.5867C9.43359 17.6914 8.90859 18.9547 8.30156 20.0156C9.30234 19.6328 10.4344 19.075 11.7414 18.818C11.0469 18.293 10.3797 17.5383 9.85469 16.5867ZM4.70859 23.4117C4.70859 23.4555 5.43047 23.1164 6.61719 21.2133C6.25078 21.5578 5.02578 22.5531 4.70859 23.4117ZM13.5625 8.75H21V26.6875C21 27.4148 20.4148 28 19.6875 28H1.3125C0.585156 28 0 27.4148 0 26.6875V1.3125C0 0.585156 0.585156 0 1.3125 0H12.25V7.4375C12.25 8.15937 12.8406 8.75 13.5625 8.75ZM13.125 18.1453C12.0312 17.4781 11.3039 16.5594 10.7898 15.2031C11.0359 14.1914 11.4242 12.6547 11.1289 11.6922C10.8719 10.0844 8.81016 10.243 8.51484 11.3203C8.24141 12.3211 8.49297 13.732 8.95781 15.5312C8.32344 17.0406 7.38828 19.0641 6.72656 20.2234C6.72109 20.2234 6.72109 20.2289 6.71563 20.2289C5.23359 20.9891 2.69063 22.6625 3.73516 23.9477C4.04141 24.325 4.61016 24.4945 4.91094 24.4945C5.88984 24.4945 6.86328 23.5102 8.25234 21.1148C9.66328 20.65 11.2109 20.0703 12.5727 19.8461C13.7594 20.4914 15.1484 20.9125 16.0727 20.9125C17.6695 20.9125 17.7789 19.1625 17.15 18.5391C16.3898 17.7953 14.1805 18.0086 13.125 18.1453ZM20.6172 5.74219L15.2578 0.382812C15.0117 0.136719 14.6781 0 14.3281 0H14V7H21V6.66641C21 6.32187 20.8633 5.98828 20.6172 5.74219ZM16.5648 19.7039C16.7891 19.5562 16.4281 19.0531 14.2242 19.2117C16.2531 20.0758 16.5648 19.7039 16.5648 19.7039Z" fill="#DC2428"/>
</svg>
