<svg xmlns="http://www.w3.org/2000/svg" width="172" height="120" fill="none" viewBox="0 0 172 120">
  <path fill="#fff" d="M25.714 51.429c9.456 0 17.143-7.688 17.143-17.143 0-9.456-7.687-17.143-17.143-17.143-9.455 0-17.143 7.687-17.143 17.143 0 9.455 7.688 17.143 17.143 17.143Zm120 0c9.456 0 17.143-7.688 17.143-17.143 0-9.456-7.687-17.143-17.143-17.143-9.455 0-17.143 7.687-17.143 17.143 0 9.455 7.688 17.143 17.143 17.143ZM154.286 60h-17.143c-4.714 0-8.973 1.902-12.081 4.982 10.795 5.92 18.456 16.607 20.117 29.304h17.678a8.563 8.563 0 0 0 8.572-8.572v-8.571c0-9.456-7.688-17.143-17.143-17.143Zm-68.572 0c16.581 0 30-13.42 30-30s-13.419-30-30-30c-16.58 0-30 13.42-30 30s13.42 30 30 30Zm20.572 8.571h-2.224c-5.57 2.679-11.758 4.286-18.348 4.286-6.589 0-12.75-1.607-18.348-4.286h-2.223c-17.036 0-30.857 13.822-30.857 30.858v7.714c0 7.098 5.759 12.857 12.857 12.857h77.143c7.098 0 12.857-5.759 12.857-12.857v-7.714c0-17.036-13.822-30.858-30.857-30.858Zm-59.92-3.589A17.091 17.091 0 0 0 34.286 60H17.143C7.687 60 0 67.688 0 77.143v8.571a8.562 8.562 0 0 0 8.571 8.572h17.652c1.688-12.697 9.348-23.384 20.143-29.304Z"/>
</svg>
