<svg xmlns="http://www.w3.org/2000/svg" width="150" height="120" fill="none" viewBox="0 0 150 120">
  <path fill="#fff" d="M59.773 61.324a3.75 3.75 0 0 0 5.304 0l2.65-2.65a3.75 3.75 0 0 0 0-5.304L59.355 45l8.37-8.372a3.75 3.75 0 0 0 0-5.304l-2.65-2.65a3.75 3.75 0 0 0-5.305 0L46.097 42.346a3.75 3.75 0 0 0 0 5.304l13.676 13.673Zm22.502-2.648 2.65 2.65a3.75 3.75 0 0 0 5.305 0l13.673-13.673a3.75 3.75 0 0 0 0-5.304L90.23 28.676a3.75 3.75 0 0 0-5.304 0l-2.651 2.65a3.75 3.75 0 0 0 0 5.304l8.37 8.37-8.37 8.372a3.75 3.75 0 0 0 0 5.304ZM146.25 97.5H89.423c-.173 4.643-3.447 7.5-7.673 7.5H67.5c-4.38 0-7.74-4.095-7.68-7.5H3.75A3.761 3.761 0 0 0 0 101.25V105c0 8.25 6.75 15 15 15h120c8.25 0 15-6.75 15-15v-3.75a3.761 3.761 0 0 0-3.75-3.75ZM135 11.25C135 5.062 129.938 0 123.75 0h-97.5C20.062 0 15 5.063 15 11.25V90h120V11.25ZM120 75H30V15h90v60Z"/>
</svg>
