<svg xmlns="http://www.w3.org/2000/svg" width="151" height="120" fill="none" viewBox="0 0 151 120">
  <path fill="#fff" d="m65.378 119.883-14.298-4.149c-1.5-.422-2.344-1.992-1.922-3.492L81.153 2.03c.421-1.5 1.992-2.343 3.492-1.922l14.298 4.15c1.5.421 2.344 1.992 1.922 3.492L68.87 117.96c-.445 1.5-1.992 2.367-3.492 1.922Zm-26.72-26.299 10.195-10.876a2.813 2.813 0 0 0-.187-4.031L27.43 59.996l21.236-18.681c1.195-1.055 1.289-2.883.187-4.032L38.657 26.407a2.816 2.816 0 0 0-3.984-.117L.896 57.933a2.794 2.794 0 0 0 0 4.102l33.776 31.666c1.148 1.079 2.93 1.032 3.984-.117Zm76.692.14 33.776-31.666a2.793 2.793 0 0 0 0-4.101l-33.776-31.69a2.837 2.837 0 0 0-3.984.117L101.17 37.26a2.813 2.813 0 0 0 .187 4.031l21.236 18.705-21.236 18.68c-1.195 1.056-1.289 2.884-.187 4.032l10.196 10.876c1.055 1.149 2.836 1.196 3.984.14Z"/>
</svg>
